<svg version="1.1" xmlns="http://www.w3.org/2000/svg" xmlns:xlink="http://www.w3.org/1999/xlink" width="48px" height="48px" viewBox="0,0,256,256"><defs><linearGradient x1="38.368" y1="9.562" x2="9.742" y2="38.188" gradientUnits="userSpaceOnUse" id="color-1"><stop offset="0" stop-color="#60fea4"></stop><stop offset="0.033" stop-color="#6afeaa"></stop><stop offset="0.197" stop-color="#97fec4"></stop><stop offset="0.362" stop-color="#bdffd9"></stop><stop offset="0.525" stop-color="#d1fae2"></stop><stop offset="0.687" stop-color="#eefff5"></stop><stop offset="0.846" stop-color="#fbfffd"></stop><stop offset="1" stop-color="#ffffff"></stop></linearGradient></defs><g fill="none" fill-rule="nonzero" stroke="none" stroke-width="none" stroke-linecap="none" stroke-linejoin="miter" stroke-miterlimit="10" stroke-dasharray="" stroke-dashoffset="0" font-family="none" font-weight="none" font-size="none" text-anchor="none" style="mix-blend-mode: normal"><g transform="scale(5.33333,5.33333)"><path d="M41.607,14h-10.444c-0.523,-0.31 -1.126,-0.5 -1.778,-0.5h-22.378c-1.937,0 -3.507,1.57 -3.507,3.507v13.487c0,1.936 1.57,3.506 3.507,3.506h34.601c1.598,0 2.893,-1.295 2.893,-2.893v-14.214c-0.001,-1.598 -1.296,-2.893 -2.894,-2.893z" fill="url(#color-1)" stroke="none" stroke-width="1" stroke-linecap="butt"></path><path d="M30.298,34.5h-22.798c-2.209,0 -4,-1.791 -4,-4v-13c0,-2.209 1.791,-4 4,-4h10.734" fill="none" stroke="#10e36c" stroke-width="3" stroke-linecap="round"></path><path d="M44.5,29.787v1.713c0,1.657 -1.343,3 -3,3h-15c-1.657,0 -3,-1.343 -3,-3v-15c0,-1.657 1.343,-3 3,-3h15c1.657,0 3,1.343 3,3v6.521" fill="none" stroke="#10e36c" stroke-width="3" stroke-linecap="round"></path></g></g></svg>