<svg xmlns="http://www.w3.org/2000/svg" xmlns:xlink="http://www.w3.org/1999/xlink" viewBox="0,0,256,256" width="48px" height="48px" fill-rule="nonzero"><defs><radialGradient cx="29.16355" cy="20.93854" r="27.2855" gradientUnits="userSpaceOnUse" id="color-1"><stop offset="0" stop-color="#22acf0"></stop><stop offset="0" stop-color="#1ba1e3"></stop><stop offset="0.3" stop-color="#5489d6"></stop><stop offset="0.545" stop-color="#9b72cb"></stop><stop offset="0.825" stop-color="#d96570"></stop><stop offset="1" stop-color="#f49c46"></stop></radialGradient><radialGradient cx="29.16355" cy="20.93854" r="27.2855" gradientUnits="userSpaceOnUse" id="color-2"><stop offset="0" stop-color="#1ba1e3"></stop><stop offset="0" stop-color="#1ba1e3"></stop><stop offset="0.3" stop-color="#5489d6"></stop><stop offset="0.545" stop-color="#9b72cb"></stop><stop offset="0.825" stop-color="#d96570"></stop><stop offset="1" stop-color="#f49c46"></stop></radialGradient></defs><g fill="none" fill-rule="nonzero" stroke="none" stroke-width="1" stroke-linecap="butt" stroke-linejoin="miter" stroke-miterlimit="10" stroke-dasharray="" stroke-dashoffset="0" font-family="none" font-weight="none" font-size="none" text-anchor="none" style="mix-blend-mode: normal"><g transform="scale(5.33333,5.33333)"><path d="M22.882,31.557l-1.757,4.024c-0.675,1.547 -2.816,1.547 -3.491,0l-1.757,-4.024c-1.564,-3.581 -4.378,-6.432 -7.888,-7.99l-4.836,-2.147c-1.538,-0.682 -1.538,-2.919 0,-3.602l4.685,-2.08c3.601,-1.598 6.465,-4.554 8.002,-8.258l1.78,-4.288c0.66,-1.591 2.859,-1.591 3.52,0l1.78,4.288c1.537,3.703 4.402,6.659 8.002,8.258l4.685,2.08c1.538,0.682 1.538,2.919 0,3.602l-4.836,2.147c-3.511,1.559 -6.325,4.409 -7.889,7.99z" fill="url(#color-1)"></path><path d="M39.21,44.246l-0.494,1.132c-0.362,0.829 -1.51,0.829 -1.871,0l-0.494,-1.132c-0.881,-2.019 -2.467,-3.627 -4.447,-4.506l-1.522,-0.676c-0.823,-0.366 -0.823,-1.562 0,-1.928l1.437,-0.639c2.03,-0.902 3.645,-2.569 4.511,-4.657l0.507,-1.224c0.354,-0.853 1.533,-0.853 1.886,0l0.507,1.224c0.866,2.088 2.481,3.755 4.511,4.657l1.437,0.639c0.823,0.366 0.823,1.562 0,1.928l-1.522,0.676c-1.979,0.879 -3.565,2.487 -4.446,4.506z" fill="url(#color-2)"></path></g></g></svg>