<svg version="1.1" xmlns="http://www.w3.org/2000/svg" xmlns:xlink="http://www.w3.org/1999/xlink" width="48px" height="48px" viewBox="0,0,256,256"><g fill="none" fill-rule="nonzero" stroke="none" stroke-width="1" stroke-linecap="butt" stroke-linejoin="miter" stroke-miterlimit="10" stroke-dasharray="" stroke-dashoffset="0" font-family="none" font-weight="none" font-size="none" text-anchor="none" style="mix-blend-mode: normal"><g transform="scale(5.33333,5.33333)"><path d="M42,26h-36v-4h36zM42,8h-36v4h36zM42,36h-36v4h36z" fill="#ced9de"></path><path d="M18,12h-12v-4h12zM14,36h-8v4h8zM31,22h-25v4h25z" fill="#ff6d00"></path><path d="M20,14h-3c-0.5,0 -1,-0.4 -1,-1v-6c0,-0.6 0.5,-1 1,-1h3c0.5,0 1,0.4 1,1v6c0,0.6 -0.5,1 -1,1zM17,41v-6c0,-0.5 -0.5,-1 -1,-1h-3c-0.6,0 -1,0.5 -1,1v6c0,0.5 0.4,1 1,1h3c0.5,0 1,-0.5 1,-1zM34,27v-6c0,-0.5 -0.5,-1 -1,-1h-3c-0.5,0 -1,0.5 -1,1v6c0,0.5 0.5,1 1,1h3c0.5,0 1,-0.5 1,-1z" fill="#bf360c"></path></g></g></svg>