<svg width="61" height="49" viewBox="0 0 61 49" fill="none" xmlns="http://www.w3.org/2000/svg">
<path d="M54.9 6.1H33.0254C31.4089 6.1 29.8564 5.45645 28.7127 4.3127L26.1873 1.7873C25.0436 0.64355 23.4911 0 21.8746 0H6.1C2.745 0 0 2.745 0 6.1V42.7C0 46.055 2.745 48.8 6.1 48.8H54.9C58.255 48.8 61 46.055 61 42.7V12.2C61 8.845 58.255 6.1 54.9 6.1ZM36.1882 34.0227L35.7948 34.3582C34.9408 35.1024 33.5347 36.0967 32.3849 36.8775C31.2472 37.6522 29.7558 37.6522 28.6182 36.8775C27.4683 36.0967 26.0623 35.0994 25.2083 34.3552L24.8118 34.0197C22.8537 32.3666 18.2512 28.4839 18.3 23.9791C18.3122 23 18.5409 21.9935 19.0625 20.9718C20.3465 18.4708 22.6462 16.778 25.62 16.7719C27.4957 16.7689 29.7375 17.8394 30.5 19.0472C31.3387 17.8394 33.5073 16.7689 35.38 16.7719C38.3538 16.775 40.6534 18.4708 41.9344 20.9718C42.459 21.9935 42.6878 23 42.6969 23.9791C42.7488 28.4839 38.1463 32.3696 36.1882 34.0227Z" fill="#0D162F"/>
<rect x="10" y="10" width="40" height="28" fill="#0D162F"/>
<path d="M35.32 29.56C34.0262 29.56 33.16 30.6513 33.16 32.44C33.16 34.2288 33.8012 36.0738 35.32 36.04C36.9175 36.0034 37.4941 34.4397 37.48 32.44C37.4687 30.6513 36.6109 29.56 35.32 29.56ZM43.4284 20.9678C43.6253 20.0003 43.7097 16.5747 42.2894 13C42.2894 13 39.0269 13.3572 34.0937 16.7434C33.0616 16.4566 31.3094 16.3131 29.56 16.3131C27.8106 16.3131 26.0613 16.4566 25.0234 16.7406C20.0931 13.3572 16.8334 13 16.8334 13C15.4103 16.5747 15.4806 19.9188 15.6916 20.9678C14.0209 22.7819 13 24.9588 13 27.9344C13 40.8691 23.7325 41.0772 26.4409 41.0772C27.0541 41.0772 28.2719 41.0772 29.56 41.08C30.8481 41.0772 32.0688 41.0772 32.6791 41.0772C35.3875 41.0772 46.12 40.8691 46.12 27.9344C46.12 24.9588 45.0991 22.7819 43.4284 20.9678ZM29.6612 39.64H29.56C22.7706 39.64 17.4325 38.6753 17.4325 32.0772C17.4325 30.4966 17.9922 29.0312 19.3169 27.8134C21.5275 25.7828 25.2653 26.8572 29.5094 26.8572C29.5263 26.8572 29.5966 26.8572 29.6106 26.8572C33.8547 26.8572 37.5953 25.7856 39.8059 27.8134C41.1306 29.0313 41.6875 30.4966 41.6875 32.0772C41.6875 38.6753 36.4506 39.64 29.6612 39.64ZM23.8 29.56C22.5091 29.56 21.64 31.0113 21.64 32.8C21.64 34.5888 22.5091 36.04 23.8 36.04C25.0937 36.04 25.96 34.5888 25.96 32.8C25.96 31.0113 25.0937 29.56 23.8 29.56Z" fill="white"/>
</svg>
