<svg version="1.1" xmlns="http://www.w3.org/2000/svg" xmlns:xlink="http://www.w3.org/1999/xlink" width="64px" height="64px" viewBox="0,0,256,256"><g fill="none" fill-rule="nonzero" stroke="none" stroke-width="none" stroke-linecap="none" stroke-linejoin="none" stroke-miterlimit="10" stroke-dasharray="" stroke-dashoffset="0" font-family="none" font-weight="none" font-size="none" text-anchor="none" style="mix-blend-mode: normal"><g transform="scale(4,4)"><ellipse cx="32" cy="61" rx="19" ry="3" fill="#1b1b1b" stroke="none" stroke-width="1" stroke-linecap="butt" stroke-linejoin="miter" opacity="0.3"></ellipse><path d="M54,23.097v24.903c0,3.314 -2.686,6 -6,6h-32c-3.314,0 -6,-2.686 -6,-6v-32c0,-3.314 2.686,-6 6,-6h24.294c1.741,0 3.42,0.649 4.709,1.82l6.706,6.097c1.459,1.327 2.291,3.207 2.291,5.18z" fill="#9c34c2" stroke="none" stroke-width="1" stroke-linecap="butt" stroke-linejoin="miter"></path><path d="M46,54h-28v-14c0,-2.209 1.791,-4 4,-4h20c2.209,0 4,1.791 4,4z" fill="#fda4ad" stroke="none" stroke-width="1" stroke-linecap="butt" stroke-linejoin="miter"></path><path d="M37,25h-11c-2.209,0 -4,-1.791 -4,-4v-11h19v11c0,2.209 -1.791,4 -4,4z" fill="#fda4ad" stroke="none" stroke-width="1" stroke-linecap="butt" stroke-linejoin="miter"></path><path d="M33,22v0c-1.657,0 -3,-1.343 -3,-3v-4c0,-1.657 1.343,-3 3,-3v0c1.657,0 3,1.343 3,3v4c0,1.657 -1.343,3 -3,3z" fill="#9c34c2" stroke="none" stroke-width="1" stroke-linecap="butt" stroke-linejoin="miter"></path><path d="M10,16v20c2.761,0 5,-2.239 5,-5v-15c0,-0.551 0.449,-1 1,-1h7c2.761,0 5,-2.239 5,-5h-12c-3.314,0 -6,2.686 -6,6z" fill="#ffffff" stroke="none" stroke-width="1" stroke-linecap="butt" stroke-linejoin="miter" opacity="0.3"></path><path d="M54,48v-22c-2.761,0 -5,2.239 -5,5v17c0,0.551 -0.449,1 -1,1h-13c-2.761,0 -5,2.239 -5,5h18c3.314,0 6,-2.686 6,-6z" fill="#1b1b1b" stroke="none" stroke-width="1" stroke-linecap="butt" stroke-linejoin="miter" opacity="0.15"></path><path d="M14.5,15.5v5" fill="none" stroke="#ffffff" stroke-width="3" stroke-linecap="round" stroke-linejoin="round"></path></g></g></svg>